# xmcd CD database file
#
# Track frame offsets:
#	225
#	12054
#	24337
#	35226
#	46387
#	55569
#	68453
#	79062
#	91097
#	103205
#	117251
#
# Disc length: 1732 seconds
#
# Revision: 0
# Processed by: cddbd v1.4PL0 Copyright (c) Steve Scherf et al.
# Submitted via: CDex 1.50
#
DISCID=7e06c10b
DTITLE=Various Artist - The Best Of Classic Country Volume 2
DYEAR=2003
DGENRE=Country
TTITLE0=Ernest Tubb/Walking The Floor Over You
TTITLE1=Hank Williams/Lovesick Blues
TTITLE2=Faron Young/Hello Walls
TTITLE3=Conway Twitty/Hello Darling
TTITLE4=Charley Pride/Kiss An Angel Good Mornin'
TTITLE5=Patsy Cline/I Fall To Pieces
TTITLE6=Jim Reeves/He'll Have To Go
TTITLE7=Brenda Lee/I'm Sorry
TTITLE8=Eddy Arnold/Make The World Go Away
TTITLE9=Dolly Parton/I Will Always Love You
TTITLE10=Bill Anderson/Still
EXTD=YEAR: 2003
EXTT0=
EXTT1=
EXTT2=
EXTT3=
EXTT4=
EXTT5=
EXTT6=
EXTT7=
EXTT8=
EXTT9=
EXTT10=
PLAYORDER=
